<svg width="143" height="28" viewBox="0 0 143 28" fill="none" xmlns="http://www.w3.org/2000/svg">
<path d="M42.6385 22.2288V20.5089C41.8269 21.5422 40.0835 22.5133 38.4408 22.5133C35.8047 22.5133 33.5225 20.7901 33.5225 18.4423C33.5225 15.9245 35.334 14.283 37.9279 13.8416C39.2167 13.6225 42.6385 13.0208 42.6385 13.0208C42.6385 11.811 42.0476 10.5717 40.0868 10.5717C37.9344 10.5717 35.8989 11.4186 34.6782 11.9614V9.32588C35.98 8.75038 38.2882 7.93945 40.2264 7.93945C43.7682 7.93945 45.5343 10.0387 45.5343 13.1909V22.2288H42.6385ZM41.6418 18.8347C42.3073 18.1284 42.6385 17.1213 42.6385 15.8101V15.3555C42.6385 15.3555 39.8887 15.8395 38.5025 16.0847C37.402 16.2776 36.4053 17.0559 36.4053 18.099C36.4053 19.5214 38.1259 19.8941 38.8791 19.8941C40.0575 19.8941 40.9763 19.541 41.6418 18.8347Z" fill="#2B2D39"/>
<path d="M74.1999 20.1948C74.1999 20.1948 72.7845 21.9442 70.0023 21.9442C68.2492 21.9442 66.7266 21.2641 65.4378 19.9005C64.1457 18.5403 63.5029 16.8857 63.5029 14.9401C63.5029 10.9934 66.5026 7.93604 70.0023 7.93604C73.0117 7.93604 74.1999 9.68869 74.1999 9.68869V8.23686H77.0958V20.5251C77.0958 25.5869 74.3136 28 69.7653 28C67.5967 28 65.6683 27.4834 64.4314 26.7084V23.9977C65.4735 24.6909 67.6941 25.3808 69.7653 25.3808C72.5443 25.3808 74.1967 23.5988 74.1967 21.1856V20.1915L74.1999 20.1948ZM70.2977 19.312C72.5508 19.312 74.1999 17.2323 74.1999 14.9434C74.1999 12.6545 72.5248 10.5748 70.2977 10.5748C68.0707 10.5748 66.3825 12.6774 66.3825 14.9434C66.3825 17.2094 68.0415 19.312 70.2977 19.312Z" fill="#2B2D39"/>
<path d="M98.2758 14.0737C98.2758 12.6252 97.8148 10.5717 95.38 10.5717C92.7536 10.5717 92.2017 13.3838 92.2017 14.6558V22.2288H89.3059V14.0737C89.3059 12.926 88.9585 10.5717 86.41 10.5717C84.0823 10.5717 83.2318 12.7854 83.2318 14.6558V22.2288H80.3359V8.23701H83.2318V9.95043C83.6441 9.10026 84.9459 7.93945 86.9911 7.93945C90.0396 7.93945 91.2862 10.4769 91.2862 10.4769C92.0588 9.26702 93.3022 7.93945 95.9643 7.93945C99.0614 7.93945 101.178 9.87522 101.178 14.0737V22.2288H98.2823V14.0737H98.2758Z" fill="#2B2D39"/>
<path d="M106.414 16.2511C106.654 18.2033 108.287 19.8938 111.079 19.8938C114.264 19.8938 115.907 18.5728 115.907 18.5728V21.3129C114.485 22.1435 112.725 22.5162 110.923 22.5162C106.541 22.5162 103.531 19.5014 103.531 15.6004C103.531 11.6995 106.164 7.94238 110.618 7.94238C114.417 7.94238 117.423 10.7937 117.423 14.8026C117.423 15.741 117.351 16.2544 117.351 16.2544H106.414V16.2511ZM106.541 13.7758H114.582C114.413 12.7883 113.456 10.4308 110.612 10.4308C107.768 10.4308 106.671 12.7033 106.541 13.7758Z" fill="#2B2D39"/>
<path d="M122.68 9.94701C122.68 9.94701 124.079 7.93604 126.877 7.93604C129.676 7.93604 132.516 9.81295 132.516 14.0703V22.2254H129.621V14.0703C129.621 12.8147 128.806 10.5683 126.299 10.5683C123.793 10.5683 122.683 12.5073 122.683 14.6524V22.2254H119.787V8.23686H122.683V9.94701H122.68Z" fill="#2B2D39"/>
<path d="M136.918 3.99902H139.518V8.23679H142.55V10.856H139.518V18.1151C139.518 19.0307 140.115 19.8939 141.255 19.8939C142.118 19.8939 142.709 19.6094 142.709 19.6094V22.2286C142.135 22.4183 141.456 22.5131 140.674 22.5131C137.969 22.5131 136.622 21.058 136.632 18.1445V10.856H134.019V8.23679H135.473C136.434 8.23679 136.914 7.65475 136.914 6.4874V4.00229L136.918 3.99902Z" fill="#2B2D39"/>
<path d="M58.2215 20.5118C58.2215 20.5118 56.8223 22.5228 54.0238 22.5228C51.2254 22.5228 48.3848 20.6459 48.3848 16.3885V8.2334H51.2806V16.3885C51.2806 17.6441 52.0954 19.8905 54.6017 19.8905C57.108 19.8905 58.2182 17.9515 58.2182 15.8064V8.2334H61.1141V22.2252H58.2182V20.5151L58.2215 20.5118Z" fill="#2B2D39"/>
<path d="M19.8158 22.5064C18.4296 22.5064 17.3096 21.375 17.3096 19.982V10.4765C17.3096 9.08026 18.4328 7.95215 19.8158 7.95215C21.1988 7.95215 22.3221 9.08353 22.3221 10.4765V19.982C22.3221 21.3783 21.1988 22.5064 19.8158 22.5064Z" fill="#2B2D39"/>
<path d="M2.38209 22.4837C0.671221 22.4837 -0.585152 20.646 0.281648 18.9653C0.317358 18.8934 4.07024 11.7618 6.44015 7.46187C10.2385 0.568959 15.0367 0 20.033 0C21.3478 0 22.4126 1.07252 22.4126 2.39355C22.4126 3.71458 21.3478 4.79038 20.033 4.79038C15.4912 4.79038 13.0791 5.28413 10.6021 9.78675C8.25491 14.0474 4.52475 21.1365 4.48903 21.2084C4.06375 22.0194 3.23916 22.4837 2.38534 22.4837" fill="#2B2D39"/>
</svg>
