<?xml version="1.0" encoding="UTF-8"?>
<svg id="Layer_2" data-name="Layer 2" xmlns="http://www.w3.org/2000/svg" viewBox="0 0 974.46 216.46">
  <defs>
    <style>
      .cls-1 {
        fill: #4d6bfe;
        stroke-width: 0px;
      }
    </style>
  </defs>
  <g id="Layer_1-2" data-name="Layer 1">
    <g id="katman_1" data-name="katman 1">
      <g>
        <path id="path" class="cls-1" d="M290.9,18.22c-3.08-1.46-4.39,1.46-6.3,2.93-.59.44-1.17,1.17-1.61,1.61-4.54,4.83-9.81,8.06-16.84,7.62-10.11-.59-18.75,2.64-26.51,10.4-1.61-9.67-7.03-15.38-15.23-19.04-4.25-1.9-8.64-3.81-11.72-7.91-2.05-2.93-2.64-6.3-3.66-9.52-.73-1.9-1.32-3.95-3.66-4.25-2.49-.44-3.37,1.61-4.39,3.37-3.81,7.03-5.27,14.79-5.13,22.56.29,17.58,7.76,31.64,22.56,41.6,1.76,1.17,2.05,2.34,1.61,3.95-1.03,3.37-2.2,6.74-3.22,10.25-.73,2.2-1.76,2.64-4.1,1.76-8.06-3.37-15.09-8.35-21.24-14.5-10.55-10.11-20.07-21.38-31.78-30.17-2.78-2.05-5.57-3.95-8.5-5.86-12.01-11.72,1.61-21.38,4.69-22.56,3.22-1.17,1.17-5.27-9.52-5.27s-20.51,3.66-32.95,8.35c-1.9.73-3.66,1.17-5.71,1.61-11.28-2.2-23-2.64-35.3-1.17-23.14,2.64-41.6,13.47-55.07,32.22C1.05,68.61-2.91,94.09,1.93,120.75c4.98,27.97,19.19,51.26,41.16,69.28,22.7,18.75,48.92,27.97,78.8,26.22,18.16-1.03,38.37-3.52,61.22-22.85,5.71,2.93,11.86,3.95,21.82,4.83,7.76.73,15.09-.44,20.94-1.61,8.93-1.9,8.35-10.25,5.13-11.72-26.36-12.3-20.65-7.32-25.92-11.42,13.47-15.82,33.69-32.37,41.6-85.98.59-4.25,0-6.88,0-10.4,0-2.05.44-2.93,2.78-3.08,6.59-.73,13.04-2.64,18.89-5.86,17.14-9.37,24.02-24.75,25.63-43.21.29-2.78,0-5.71-3.08-7.18v.44ZM141.8,184.02c-25.63-20.21-37.93-26.8-43.21-26.51-4.83.29-3.95,5.71-2.93,9.37,1.03,3.52,2.49,6.01,4.54,9.08,1.32,2.05,2.34,5.13-1.32,7.32-8.2,5.13-22.56-1.76-23.29-2.05-16.7-9.81-30.61-22.85-40.42-40.57-9.52-17.14-14.94-35.44-15.96-54.92-.29-4.69,1.17-6.44,5.86-7.32,6.15-1.17,12.6-1.46,18.75-.44,26.07,3.81,48.33,15.53,66.93,33.98,10.69,10.55,18.75,23.14,26.95,35.44,8.79,13.04,18.31,25.49,30.32,35.74,4.25,3.52,7.62,6.3,10.98,8.35-9.81,1.17-26.22,1.32-37.5-7.47h.29ZM154.1,105.08c0-2.2,1.61-3.81,3.81-3.81s.88,0,1.32.29c.44.15,1.03.44,1.32.88.73.73,1.03,1.61,1.03,2.64,0,2.05-1.61,3.81-3.81,3.81s-3.66-1.61-3.66-3.81h0ZM192.19,124.56c-2.49,1.03-4.83,1.9-7.18,1.9-3.66.15-7.62-1.32-9.81-3.08-3.37-2.78-5.71-4.39-6.74-9.37-.44-2.05-.15-5.27.15-7.18.88-3.95,0-6.59-2.93-8.93-2.34-1.9-5.27-2.49-8.5-2.49s-2.34-.44-3.08-.88c-1.32-.73-2.49-2.34-1.32-4.39.29-.73,1.9-2.34,2.34-2.49,4.39-2.49,9.37-1.76,14.06.15,4.25,1.76,7.62,4.98,12.3,9.67,4.83,5.57,5.71,7.03,8.35,11.28,2.2,3.22,4.1,6.59,5.42,10.4.88,2.34-.29,4.39-3.08,5.57v-.15Z"/>
        <path id="path-2" class="cls-1" d="M587.79,175.82h-9.96v-15.38h9.96c6.15,0,12.3-1.46,16.4-5.86,4.1-4.25,5.57-10.84,5.57-17.43s-1.46-13.04-5.57-17.28-10.25-5.86-16.4-5.86-12.3,1.46-16.4,5.86c-4.1,4.25-5.57,10.84-5.57,17.28v63.42h-17.43v-101.94h17.43v6.44h3.22l1.03-1.03c4.39-3.95,10.98-5.42,17.58-5.42,10.25,0,20.65,2.49,27.39,9.67,6.74,7.18,9.08,18.02,9.08,28.85s-2.49,21.82-9.08,28.85c-6.74,7.18-17.14,9.67-27.39,9.67l.15.15Z"/>
        <path id="path-3" class="cls-1" d="M322.1,101.27h9.96v15.38h-9.96c-6.15,0-12.3,1.46-16.4,5.86-4.1,4.25-5.57,10.84-5.57,17.28s1.46,13.04,5.57,17.28c4.1,4.25,10.25,5.86,16.4,5.86s12.3-1.61,16.4-5.86c4.1-4.25,5.57-10.84,5.57-17.28v-63.27h17.43v101.94h-17.43v-6.44h-3.22c-.29.44-.73.73-1.03,1.03-4.39,3.95-10.98,5.42-17.58,5.42-10.25,0-20.65-2.49-27.39-9.67-6.74-7.18-9.08-18.02-9.08-28.85s2.49-21.82,9.08-28.85c6.74-7.18,17.14-9.67,27.39-9.67l-.15-.15Z"/>
        <path id="path-4" class="cls-1" d="M449.09,138.62v6.15h-46.43v-12.3h30.76c-.73-4.54-2.34-8.64-5.27-11.72-4.25-4.39-10.69-6.01-17.14-6.01s-12.89,1.61-16.99,6.01c-4.25,4.39-5.71,11.13-5.71,17.87s1.46,13.47,5.71,18.02c4.25,4.39,10.69,6.01,16.99,6.01s12.89-1.61,17.14-6.01c.59-.59,1.17-1.32,1.61-2.05h17.28c-1.46,5.42-3.95,10.25-7.47,13.91-7.03,7.32-17.72,9.96-28.41,9.96s-21.38-2.64-28.41-9.96c-7.03-7.32-9.52-18.75-9.52-29.88s2.49-22.56,9.52-29.88,17.72-9.96,28.41-9.96,21.38,2.64,28.41,9.96,9.52,18.75,9.52,29.88h0Z"/>
        <path id="path-5" class="cls-1" d="M536.67,138.62v6.15h-46.43v-12.3h30.9c-.73-4.54-2.34-8.64-5.27-11.72-4.25-4.39-10.69-6.01-16.99-6.01s-12.89,1.61-16.99,6.01c-4.25,4.39-5.71,11.13-5.71,17.87s1.46,13.47,5.71,18.02,10.69,6.01,16.99,6.01,12.89-1.61,16.99-6.01c.59-.59,1.17-1.32,1.61-2.05h17.28c-1.46,5.42-3.95,10.25-7.47,13.91-7.03,7.32-17.72,9.96-28.41,9.96s-21.38-2.64-28.41-9.96c-7.03-7.32-9.52-18.75-9.52-29.88s2.49-22.56,9.52-29.88,17.72-9.96,28.41-9.96,21.38,2.64,28.41,9.96,9.52,18.75,9.52,29.88h-.15Z"/>
        <path id="path-6" class="cls-1" d="M673.91,178.46c10.69,0,21.38-1.61,28.41-5.86,7.03-4.39,9.52-10.98,9.52-17.58s-2.49-13.33-9.52-17.58c-7.03-4.39-17.72-5.86-28.41-5.86h.29c-4.54,0-9.08-.59-12.16-2.34-2.93-1.61-4.1-4.25-4.1-6.88s1.03-5.13,4.1-6.88c2.93-1.61,7.62-2.34,12.16-2.34s9.08.59,12.16,2.34c2.93,1.76,4.1,4.25,4.1,6.88h17.72c0-6.59-2.34-13.33-8.64-17.58-6.3-4.39-16.11-5.86-25.78-5.86s-19.33,1.61-25.78,5.86c-6.3,4.39-8.64,10.98-8.64,17.58s2.34,13.33,8.64,17.58c6.3,4.39,16.11,5.86,25.78,5.86s10.55.59,13.77,2.34c3.37,1.61,4.54,4.25,4.54,6.88s-1.17,5.13-4.54,6.88-8.35,2.34-13.47,2.34-10.11-.59-13.33-2.34c-3.37-1.61-4.54-4.25-4.54-6.88h-20.51c0,6.59,2.49,13.33,9.52,17.58,7.03,4.39,17.72,5.86,28.41,5.86h.29Z"/>
        <path id="path-7" class="cls-1" d="M799.43,138.62v6.15h-46.43v-12.3h30.9c-.73-4.54-2.34-8.64-5.27-11.72-4.25-4.39-10.69-6.01-16.99-6.01s-12.89,1.61-16.99,6.01c-4.25,4.39-5.71,11.13-5.71,17.87s1.46,13.47,5.71,18.02c4.25,4.39,10.69,6.01,16.99,6.01s12.89-1.61,16.99-6.01c.59-.59,1.17-1.32,1.61-2.05h17.28c-1.46,5.42-3.95,10.25-7.47,13.91-7.03,7.32-17.72,9.96-28.41,9.96s-21.38-2.64-28.41-9.96c-7.03-7.32-9.52-18.75-9.52-29.88s2.49-22.56,9.52-29.88c7.03-7.32,17.72-9.96,28.41-9.96s21.38,2.64,28.41,9.96c7.03,7.32,9.52,18.75,9.52,29.88h-.15Z"/>
        <path id="path-8" class="cls-1" d="M887.02,138.62v6.15h-46.43v-12.3h30.9c-.73-4.54-2.34-8.64-5.27-11.72-4.25-4.39-10.69-6.01-16.99-6.01s-12.89,1.61-16.99,6.01c-4.25,4.39-5.71,11.13-5.71,17.87s1.46,13.47,5.71,18.02c4.25,4.39,10.69,6.01,16.99,6.01s12.89-1.61,16.99-6.01c.59-.59,1.17-1.32,1.61-2.05h17.28c-1.46,5.42-3.95,10.25-7.62,13.91-7.03,7.32-17.72,9.96-28.41,9.96s-21.38-2.64-28.41-9.96c-7.03-7.32-9.52-18.75-9.52-29.88s2.49-22.56,9.52-29.88,17.72-9.96,28.41-9.96,21.38,2.64,28.41,9.96c7.03,7.32,9.52,18.75,9.52,29.88h0Z"/>
        <rect id="rect" class="cls-1" x="898.74" y="73" width="17.43" height="105.46"/>
        <path id="polygon" class="cls-1" d="M945.9,136.13l28.56,42.33h-21.68l-28.56-42.33,28.56-33.98h21.68l-28.56,33.98Z"/>
      </g>
    </g>
  </g>
</svg>