<svg xmlns="http://www.w3.org/2000/svg" xmlns:xlink="http://www.w3.org/1999/xlink" width="800" viewBox="0 0 600 599.999999" height="800" preserveAspectRatio="xMidYMid meet"><defs><clipPath id="a740ff655c"><path d="M 22 224.332031 L 172 224.332031 L 172 375.832031 L 22 375.832031 Z M 22 224.332031 " clip-rule="nonzero"></path></clipPath></defs><path fill="#545454" d="M 194.753906 297.082031 C 194.753906 321.824219 210.644531 339.074219 232.660156 339.074219 C 254.679688 339.074219 270.566406 321.824219 270.566406 297.082031 C 270.566406 272.339844 254.679688 255.089844 232.660156 255.089844 C 210.644531 255.089844 194.753906 272.339844 194.753906 297.082031 Z M 256.039062 297.082031 C 256.039062 314.785156 246.394531 326.25 232.660156 326.25 C 218.929688 326.25 209.28125 314.785156 209.28125 297.082031 C 209.28125 279.375 218.929688 267.914062 232.660156 267.914062 C 246.394531 267.914062 256.039062 279.375 256.039062 297.082031 Z M 256.039062 297.082031 " fill-opacity="1" fill-rule="nonzero"></path><path fill="#545454" d="M 311.476562 339.074219 C 328.160156 339.074219 337.695312 325 337.695312 308.089844 C 337.695312 291.179688 328.160156 277.105469 311.476562 277.105469 C 303.757812 277.105469 298.085938 280.171875 294.339844 284.597656 L 294.339844 278.242188 L 280.71875 278.242188 L 280.71875 358.253906 L 294.339844 358.253906 L 294.339844 331.582031 C 298.085938 336.011719 303.757812 339.074219 311.476562 339.074219 Z M 294 306.386719 C 294 295.152344 300.355469 289.023438 308.753906 289.023438 C 318.628906 289.023438 323.960938 296.742188 323.960938 308.089844 C 323.960938 319.441406 318.628906 327.15625 308.753906 327.15625 C 300.355469 327.15625 294 320.914062 294 309.90625 Z M 294 306.386719 " fill-opacity="1" fill-rule="nonzero"></path><path fill="#545454" d="M 374.550781 339.074219 C 386.46875 339.074219 395.886719 332.832031 400.085938 322.390625 L 388.398438 317.964844 C 386.582031 324.09375 381.246094 327.496094 374.550781 327.496094 C 365.8125 327.496094 359.683594 321.253906 358.660156 311.042969 L 400.425781 311.042969 L 400.425781 306.5 C 400.425781 290.160156 391.234375 277.105469 373.984375 277.105469 C 356.734375 277.105469 345.609375 290.613281 345.609375 308.089844 C 345.609375 326.476562 357.527344 339.074219 374.550781 339.074219 Z M 373.871094 288.570312 C 382.496094 288.570312 386.582031 294.246094 386.695312 300.828125 L 359.34375 300.828125 C 361.386719 292.769531 366.832031 288.570312 373.871094 288.570312 Z M 373.871094 288.570312 " fill-opacity="1" fill-rule="nonzero"></path><path fill="#545454" d="M 410.644531 337.824219 L 424.265625 337.824219 L 424.265625 302.871094 C 424.265625 294.359375 430.507812 289.816406 436.636719 289.816406 C 444.125 289.816406 447.078125 295.152344 447.078125 302.53125 L 447.078125 337.824219 L 460.695312 337.824219 L 460.695312 298.558594 C 460.695312 285.730469 453.207031 277.105469 440.722656 277.105469 C 433.003906 277.105469 427.671875 280.625 424.265625 284.597656 L 424.265625 278.242188 L 410.644531 278.242188 Z M 410.644531 337.824219 " fill-opacity="1" fill-rule="nonzero"></path><path fill="#545454" d="M 500.585938 256.335938 L 469.714844 337.824219 L 484.128906 337.824219 L 491.050781 319.210938 L 526.234375 319.210938 L 533.269531 337.824219 L 547.910156 337.824219 L 517.042969 256.335938 Z M 508.53125 272.453125 L 521.46875 306.5 L 495.816406 306.5 Z M 508.53125 272.453125 " fill-opacity="1" fill-rule="nonzero"></path><path fill="#545454" d="M 571.292969 256.574219 L 556.765625 256.574219 L 556.765625 338.0625 L 571.292969 338.0625 Z M 571.292969 256.574219 " fill-opacity="1" fill-rule="nonzero"></path><g clip-path="url(#a740ff655c)"><path fill="#545454" d="M 161.472656 286.265625 C 164.90625 275.960938 163.722656 264.675781 158.234375 255.300781 C 149.976562 240.925781 133.378906 233.53125 117.167969 237.011719 C 109.957031 228.886719 99.59375 224.265625 88.734375 224.332031 C 72.164062 224.292969 57.460938 234.964844 52.363281 250.730469 C 41.71875 252.910156 32.53125 259.570312 27.152344 269.015625 C 18.835938 283.355469 20.730469 301.425781 31.84375 313.722656 C 28.410156 324.027344 29.59375 335.316406 35.082031 344.6875 C 43.339844 359.0625 59.9375 366.460938 76.148438 362.980469 C 83.355469 371.101562 93.722656 375.722656 104.582031 375.652344 C 121.164062 375.695312 135.871094 365.015625 140.96875 349.238281 C 151.613281 347.054688 160.800781 340.394531 166.175781 330.949219 C 174.484375 316.613281 172.585938 298.550781 161.476562 286.257812 Z M 104.59375 365.765625 C 97.957031 365.773438 91.53125 363.453125 86.4375 359.199219 C 86.671875 359.078125 87.074219 358.855469 87.332031 358.695312 L 117.464844 341.292969 C 119.007812 340.417969 119.953125 338.777344 119.941406 337.003906 L 119.941406 294.523438 L 132.679688 301.875 C 132.816406 301.941406 132.90625 302.074219 132.925781 302.226562 L 132.925781 337.40625 C 132.90625 353.046875 120.234375 365.730469 104.59375 365.765625 Z M 43.667969 339.742188 C 40.34375 334 39.144531 327.269531 40.285156 320.742188 C 40.507812 320.871094 40.898438 321.113281 41.179688 321.273438 L 71.3125 338.675781 C 72.839844 339.570312 74.730469 339.570312 76.261719 338.675781 L 113.046875 317.433594 L 113.046875 332.140625 C 113.058594 332.292969 112.988281 332.441406 112.867188 332.535156 L 82.410156 350.121094 C 68.84375 357.933594 51.515625 353.289062 43.671875 339.742188 Z M 35.734375 273.96875 C 39.046875 268.214844 44.273438 263.820312 50.496094 261.535156 C 50.496094 261.792969 50.480469 262.253906 50.480469 262.574219 L 50.480469 297.382812 C 50.472656 299.152344 51.417969 300.792969 52.953125 301.667969 L 89.738281 322.90625 L 77.003906 330.257812 C 76.878906 330.34375 76.714844 330.359375 76.574219 330.296875 L 46.109375 312.695312 C 32.570312 304.855469 27.929688 287.535156 35.730469 273.972656 Z M 140.367188 298.316406 L 103.582031 277.074219 L 116.316406 269.726562 C 116.445312 269.640625 116.605469 269.625 116.746094 269.6875 L 147.210938 287.273438 C 160.773438 295.109375 165.421875 312.460938 157.585938 326.023438 C 154.269531 331.761719 149.050781 336.160156 142.832031 338.449219 L 142.832031 302.601562 C 142.84375 300.832031 141.902344 299.195312 140.371094 298.316406 Z M 153.039062 279.238281 C 152.816406 279.101562 152.425781 278.867188 152.148438 278.707031 L 122.015625 261.304688 C 120.488281 260.410156 118.59375 260.410156 117.0625 261.304688 L 80.277344 282.546875 L 80.277344 267.839844 C 80.269531 267.6875 80.339844 267.539062 80.457031 267.445312 L 110.914062 249.875 C 124.484375 242.046875 141.828125 246.703125 149.648438 260.277344 C 152.957031 266.007812 154.152344 272.71875 153.03125 279.238281 Z M 73.355469 305.453125 L 60.613281 298.097656 C 60.476562 298.03125 60.386719 297.898438 60.367188 297.75 L 60.367188 262.570312 C 60.378906 246.910156 73.085938 234.214844 88.746094 234.226562 C 95.371094 234.226562 101.785156 236.550781 106.878906 240.789062 C 106.644531 240.910156 106.25 241.132812 105.984375 241.296875 L 75.851562 258.699219 C 74.308594 259.570312 73.363281 261.207031 73.375 262.980469 L 73.355469 305.441406 Z M 80.273438 290.535156 L 96.65625 281.074219 L 113.042969 290.53125 L 113.042969 309.453125 L 96.65625 318.910156 L 80.273438 309.453125 Z M 80.273438 290.535156 " fill-opacity="1" fill-rule="nonzero"></path></g></svg>