<?xml version="1.0" standalone="no"?>
<!DOCTYPE svg PUBLIC "-//W3C//DTD SVG 20010904//EN"
 "http://www.w3.org/TR/2001/REC-SVG-20010904/DTD/svg10.dtd">
<svg version="1.0" xmlns="http://www.w3.org/2000/svg"
 width="3333.000000pt" height="935.000000pt" viewBox="0 0 3333.000000 935.000000"
 preserveAspectRatio="xMidYMid meet">

<g transform="translate(0.000000,935.000000) scale(0.100000,-0.100000)"
fill="#000000" stroke="none">
<path d="M4910 8948 c-425 -40 -853 -224 -1185 -510 -266 -230 -466 -518 -595
-859 l-33 -87 -106 -27 c-225 -58 -445 -158 -647 -294 -729 -488 -1083 -1412
-868 -2266 77 -307 232 -615 422 -841 l60 -71 -28 -101 c-205 -729 5 -1516
550 -2063 342 -343 794 -556 1295 -610 138 -15 404 -6 542 19 l103 18 77 -79
c628 -635 1593 -804 2411 -421 208 97 396 228 571 398 231 226 389 463 501
754 23 59 43 108 44 109 1 2 45 14 97 27 674 176 1207 660 1453 1319 103 275
149 604 126 887 -36 441 -212 881 -480 1198 l-61 73 15 47 c73 227 107 522 87
762 -83 985 -799 1773 -1761 1940 -227 39 -539 37 -735 -4 l-60 -13 -110 107
c-60 58 -147 134 -193 169 -424 321 -954 470 -1492 419z m479 -562 c182 -33
337 -89 496 -177 101 -55 231 -149 229 -163 -1 -6 -390 -234 -865 -509 -497
-287 -880 -514 -901 -534 -79 -77 -72 37 -78 -1320 -3 -666 -8 -1214 -11
-1218 -4 -3 -166 86 -360 198 l-354 205 -3 988 c-2 635 1 1032 8 1108 19 218
64 379 160 571 239 477 699 800 1230 865 101 12 346 4 449 -14z m2053 -665
c623 -127 1099 -598 1241 -1228 18 -85 21 -129 22 -323 0 -133 -4 -232 -10
-241 -9 -14 -133 55 -875 483 -476 275 -882 507 -904 514 -47 17 -121 18 -167
2 -19 -6 -497 -278 -1062 -605 -566 -326 -1030 -593 -1033 -593 -2 0 -4 186
-4 414 l0 414 858 495 c471 272 890 511 929 531 154 77 334 133 498 155 110
15 394 5 507 -18z m-4447 -1844 c0 -851 2 -1020 14 -1062 30 -102 25 -98 1138
-740 563 -324 1019 -593 1015 -597 -23 -23 -706 -409 -717 -404 -42 16 -1764
1018 -1826 1062 -616 442 -828 1276 -499 1959 165 342 443 610 789 762 42 18
78 33 81 33 3 0 5 -456 5 -1013z m4545 63 c470 -271 894 -520 941 -552 294
-200 523 -525 618 -878 31 -112 41 -173 50 -300 49 -637 -306 -1252 -884
-1530 -55 -26 -110 -51 -122 -55 l-23 -6 0 1022 c0 779 -3 1031 -12 1063 -28
92 -39 100 -1135 731 -623 359 -1019 593 -1013 599 24 24 697 406 710 402 9
-1 400 -225 870 -496z m-1520 -399 l445 -257 0 -529 0 -528 -448 -258 c-247
-143 -454 -259 -460 -258 -7 0 -212 116 -457 258 l-445 257 0 529 0 529 445
258 c245 141 452 257 460 257 8 0 215 -116 460 -258z m1204 -696 l347 -200 -4
-1100 c-3 -1086 -3 -1101 -25 -1192 -74 -316 -208 -560 -432 -784 -139 -139
-275 -237 -433 -313 -436 -207 -932 -206 -1363 4 -104 50 -265 152 -297 188
-22 24 -141 -48 943 577 426 246 790 461 808 478 19 18 43 50 55 72 l22 40 3
1218 c2 1022 5 1218 16 1215 7 -2 170 -93 360 -203z m-754 -1478 l0 -414 -867
-500 c-478 -275 -900 -517 -939 -536 -102 -51 -257 -103 -387 -129 -158 -32
-443 -32 -595 1 -432 92 -779 324 -1014 676 -195 293 -286 645 -257 995 5 69
13 128 17 132 4 3 396 -219 872 -494 476 -275 885 -507 910 -515 61 -20 144
-11 206 20 27 14 497 284 1044 601 547 316 998 575 1003 576 4 0 7 -186 7
-413z"/>
<path d="M12890 7239 c-363 -37 -727 -177 -1010 -388 -95 -71 -274 -244 -353
-341 -223 -276 -383 -626 -461 -1012 -80 -394 -73 -866 19 -1246 225 -933 873
-1539 1770 -1652 116 -15 404 -15 520 0 524 66 976 307 1297 689 284 339 449
731 525 1246 24 168 24 589 0 765 -100 717 -432 1281 -959 1627 -371 244 -873
360 -1348 312z m466 -724 c507 -96 888 -519 1009 -1119 38 -189 48 -325 42
-555 -8 -329 -60 -565 -177 -808 -127 -264 -290 -449 -515 -581 -86 -50 -225
-105 -325 -127 -102 -22 -355 -31 -460 -16 -511 75 -897 457 -1045 1036 -47
184 -65 341 -65 570 0 362 54 628 181 894 158 332 417 569 734 670 78 25 128
35 270 55 57 8 270 -3 351 -19z"/>
<path d="M27997 7173 c-10 -17 -1707 -4502 -1707 -4512 0 -8 116 -10 396 -9
l397 3 192 515 191 515 979 0 979 0 191 -505 c105 -279 195 -511 199 -518 5
-9 107 -12 408 -12 l400 0 -6 23 c-3 12 -387 1030 -854 2262 l-849 2240 -456
3 c-251 1 -458 -1 -460 -5z m798 -1823 c192 -503 350 -925 353 -937 l4 -23
-706 0 c-558 0 -706 3 -706 13 0 23 695 1876 701 1869 4 -4 163 -419 354 -922z"/>
<path d="M31120 4905 l0 -2265 405 0 405 0 -2 2263 -3 2262 -402 3 -403 2 0
-2265z"/>
<path d="M17349 6021 c-148 -16 -336 -69 -454 -129 -86 -43 -195 -122 -276
-200 l-79 -75 0 172 0 171 -380 0 -380 0 0 -2220 0 -2220 380 0 380 0 0 736 0
736 81 -76 c212 -199 448 -300 762 -326 119 -10 293 1 412 25 538 111 939 534
1088 1145 47 193 61 318 61 545 0 235 -16 374 -64 559 -84 326 -210 556 -419
767 -207 208 -428 324 -713 373 -110 19 -300 27 -399 17z m246 -691 c205 -65
359 -199 459 -399 92 -182 130 -368 129 -631 -1 -262 -42 -452 -136 -635 -43
-83 -68 -116 -147 -196 -79 -79 -110 -102 -180 -136 -120 -59 -184 -74 -341
-80 -198 -8 -318 21 -466 113 -207 129 -348 379 -383 679 -13 118 -13 406 1
520 50 420 274 702 623 781 97 22 351 13 441 -16z"/>
<path d="M20809 6020 c-371 -36 -677 -177 -929 -430 -306 -305 -469 -712 -487
-1211 -13 -361 54 -680 203 -969 146 -282 363 -503 634 -644 444 -231 1022
-241 1477 -25 275 131 526 385 664 672 24 52 38 92 33 97 -10 9 -616 240 -630
240 -5 0 -21 -31 -36 -68 -97 -238 -312 -400 -589 -443 -106 -16 -305 -6 -399
21 -161 46 -315 151 -417 285 -104 135 -187 342 -211 528 l-9 67 1159 0 1158
0 0 208 c0 304 -25 478 -100 703 -78 234 -188 416 -350 580 -203 204 -438 322
-740 373 -119 19 -318 27 -431 16z m371 -655 c115 -28 206 -80 296 -169 115
-115 174 -244 191 -418 l6 -68 -761 0 -761 0 15 53 c97 330 326 554 629 613
88 17 295 11 385 -11z"/>
<path d="M24525 6018 c-256 -28 -493 -140 -680 -319 l-85 -82 0 172 0 171
-380 0 -380 0 0 -1655 0 -1655 380 0 379 0 3 1053 c4 1172 -1 1091 74 1242
136 277 449 425 759 360 195 -41 336 -183 395 -397 35 -128 40 -283 40 -1285
l0 -973 375 0 376 0 -4 1203 c-3 1186 -3 1203 -24 1295 -63 272 -162 457 -328
610 -162 149 -369 236 -624 261 -117 12 -162 12 -276 -1z"/>
</g>
</svg>
